<?xml version="1.0" encoding="utf-8"?>
<!-- Generator: Adobe Illustrator 28.4.1, SVG Export Plug-In . SVG Version: 6.00 Build 0)  -->
<svg version="1.1" id="Layer_1" xmlns="http://www.w3.org/2000/svg" xmlns:xlink="http://www.w3.org/1999/xlink" x="0px" y="0px"
	 width="793.5px" height="170.8px" viewBox="0 0 793.5 170.8" style="enable-background:new 0 0 793.5 170.8;" xml:space="preserve"
	>
<style type="text/css">
	.Drop_x0020_Shadow{fill:none;}
	.Round_x0020_Corners_x0020_2_x0020_pt{fill:#FFFFFF;stroke:#231F20;stroke-miterlimit:10;}
	.Live_x0020_Reflect_x0020_X{fill:none;}
	.Bevel_x0020_Soft{fill:url(#SVGID_1_);}
	.Dusk{fill:#FFFFFF;}
	.Foliage_GS{fill:#FFDD00;}
	.Pompadour_GS{fill-rule:evenodd;clip-rule:evenodd;fill:#44ADE2;}
	.st0{fill:#FF6900;}
	.st1{fill:#FFB500;}
</style>
<linearGradient id="SVGID_1_" gradientUnits="userSpaceOnUse" x1="-3.2338" y1="-314.9558" x2="-2.5267" y2="-314.2487">
	<stop  offset="0" style="stop-color:#DEDFE3"/>
	<stop  offset="0.1783" style="stop-color:#DADBDF"/>
	<stop  offset="0.3611" style="stop-color:#CECFD3"/>
	<stop  offset="0.546" style="stop-color:#B9BCBF"/>
	<stop  offset="0.7324" style="stop-color:#9CA0A2"/>
	<stop  offset="0.9181" style="stop-color:#787D7E"/>
	<stop  offset="1" style="stop-color:#656B6C"/>
</linearGradient>
<g>
	<g>
		<polygon class="st0" points="65.3,10.5 128.5,44.5 104.1,57.8 40.9,23.8 		"/>
		<path class="st1" d="M123,88.2l5.5,2.9l-24.4,13.3l-8.4-4.5v-5.9l7.5,4c0.3,0.2,0.6,0.2,0.9,0.2c0.3,0,0.6-0.1,0.9-0.2l0,0
			L123,88.2z"/>
		<path class="st1" d="M94.7,110.1C94.7,110.1,94.7,110.1,94.7,110.1L94.7,110.1l-6.5-3.5l5.8-3.2l8,4.3v31.8l-6.5-3.5v-24.3
			C95.7,111.1,95.3,110.5,94.7,110.1z"/>
		<polygon class="st1" points="67.2,81.9 91.8,68.5 91.8,100.3 67.2,113.7 		"/>
		<path class="st0" d="M38.8,27.1l63.4,34.1V93l-6.5-3.5V65.2c0-0.7-0.4-1.3-0.9-1.7c0,0,0,0-0.1,0l0,0L38.8,33.4V27.1z"/>
		<polygon class="st1" points="26.5,31.2 89.7,65.2 65.3,78.5 2.1,44.5 		"/>
		<polygon class="st1" points="0,79.6 0,47.8 63.4,81.9 63.4,113.7 8.5,84.2 		"/>
		<path class="st0" d="M7.6,88.1l56.8,30.6c0.3,0.2,0.6,0.2,0.9,0.2c0.3,0,0.6-0.1,0.9-0.2l0,0l18-9.8l5.5,2.9l-24.4,13.3l-63.2-34
			L7.6,88.1z"/>
		<polygon class="st0" points="0,94.3 63.4,128.5 63.4,160.3 0,126.1 		"/>
		<polygon class="st0" points="91.8,146.8 67.2,160.2 67.2,128.5 91.8,115 		"/>
		<polygon class="st1" points="130.6,126.1 106,139.5 106,107.8 130.6,94.4 		"/>
		<polygon class="st0" points="130.6,79.6 106,93 106,61.2 130.6,47.8 		"/>
	</g>
	<g>
		<g>
			<path d="M164.9,12.5c6.3-6.3,14-9.4,23.2-9.4s16.8,3.1,23.1,9.4c6.3,6.2,9.4,13.8,9.4,22.8c0,9-3.1,16.6-9.3,22.8
				c-6.2,6.1-14,9.3-23.2,9.3c-9.3,0-17-3.1-23.2-9.3c-6.1-6.1-9.3-13.7-9.3-22.7C155.5,26.4,158.6,18.8,164.9,12.5z M200.9,48.5
				c3.5-3.5,5.2-7.9,5.1-13.1c-0.1-5.3-1.9-9.8-5.3-13.2c-3.5-3.5-7.7-5.3-12.7-5.3c-5.1,0-9.3,1.8-12.8,5.3
				c-3.5,3.5-5.2,7.9-5.2,13.2c0,5.2,1.8,9.6,5.2,13.1c3.5,3.5,7.7,5.2,12.8,5.2C193.2,53.7,197.5,52,200.9,48.5z"/>
			<path d="M271.8,26.2c4.3,4.6,6.4,10.4,6.4,17.1c0,6.8-2.2,12.5-6.5,17.3s-9.7,7.1-16.2,7.1c-5.5,0-10.1-1.9-13.9-5.9v23.7h-13.2
				V20.3h13.1v5.1c3.8-4.2,8.5-6.3,14.1-6.3C262.1,19.1,267.5,21.5,271.8,26.2z M261.5,34.9c-2.2-2.4-5-3.5-8.4-3.5
				c-3.4,0-6.1,1.2-8.3,3.5c-2.2,2.3-3.3,5.1-3.3,8.5c0,6.8,4.8,12.1,11.6,12.1c6.8,0,11.7-5.3,11.7-12.1
				C264.8,40,263.7,37.1,261.5,34.9z"/>
			<path d="M331.1,47.8h-33.9c1.6,5.8,5.8,8.7,12.5,8.7c5.2,0,10-1.5,14.4-4.5l5.2,9c-5.6,4.3-12.4,6.4-20.2,6.4
				c-8.2,0-14.4-2.4-18.8-7c-4.3-4.6-6.5-10.4-6.5-17.2c0-7,2.3-12.7,6.7-17.3c4.5-4.6,10.4-6.9,17.6-6.9c6.8,0,12.4,2.1,16.8,6.2
				c4.4,4.1,6.6,9.8,6.6,16.9C331.5,43.9,331.3,45.7,331.1,47.8z M297.1,38.4h21.7c-1.3-5.3-5.1-8.6-10.6-8.6
				C302.8,29.8,298.5,33,297.1,38.4z"/>
			<path d="M339.2,66.4V20.3h12.9v6.4c2.4-4.4,7.9-7.7,14.6-7.7c5,0,9.3,1.7,12.7,5s5.2,8.1,5.2,14.2v28.2h-13.2V41.7
				c0-6.7-3.5-10.5-9-10.5c-6,0-9.9,4.4-9.9,10.9v24.4H339.2z"/>
			<path d="M440.3,4.2c7.6,0,13.2,2,16.9,6.1c3.8,4,5.6,9,5.6,15c0,6-1.9,10.9-5.8,14.7c-3.9,3.9-9.8,5.8-17.8,5.8h-8.9v20.6h-13.9
				V4.2H440.3z M439.7,33.3c5.7,0,8.8-3.7,8.8-8.2c0-4.5-3.2-8.1-8.3-8.1h-10v16.3H439.7z"/>
			<path d="M482.8,66.4h-13.2V2.4h13.2V66.4z"/>
			<path d="M527.6,20.3h12.5v46.1h-12.5v-4.7c-4,4-8.7,5.9-14.2,5.9c-6.6,0-12-2.4-16.3-7c-4.3-4.7-6.4-10.5-6.4-17.5
				c0-6.9,2.2-12.6,6.5-17.2c4.3-4.5,9.8-6.8,16.3-6.8c5.6,0,10.3,2,14.2,6.1V20.3z M507.2,52c2.3,2.4,5.1,3.5,8.5,3.5
				c3.5,0,6.2-1.2,8.5-3.6s3.5-5.3,3.5-8.7c0-3.4-1.2-6.2-3.5-8.6s-5.1-3.5-8.5-3.5c-3.5,0-6.2,1.2-8.5,3.5
				c-2.2,2.4-3.3,5.2-3.3,8.6C503.9,46.7,505,49.6,507.2,52z"/>
			<path d="M584.8,63.8c-4,2.5-8.7,3.8-14.1,3.8c-11,0-16.5-6.2-16.5-18.6V31.2h-7.3V20.3h7.4V4h13.1v16.3h14.8v10.9h-14.8v16.5
				c0,5.2,2,7.8,6.1,7.8c2.1,0,4.6-0.8,7.6-2.3L584.8,63.8z"/>
			<path d="M607.4,19.1v1.2h14.2v10.9h-14.2v35.2h-13.1V31.2h-6.8V20.3h6.8v-1.5c0-6.1,1.8-10.8,5.3-14c3.6-3.2,8.3-4.8,13.9-4.8
				c4.7,0,9.4,1.3,14.1,3.7l-4.3,10c-3.1-1.4-5.7-2.1-7.7-2.1C610.4,11.6,607.4,14.3,607.4,19.1z"/>
			<path d="M630.8,60.7c-4.6-4.7-6.9-10.5-6.9-17.3c0-6.8,2.3-12.6,6.9-17.3c4.6-4.7,10.6-7.1,17.9-7.1c7.3,0,13.4,2.4,18,7.1
				c4.6,4.6,7,10.4,7,17.3c0,6.8-2.4,12.6-7,17.3c-4.6,4.6-10.7,7-18,7C641.5,67.7,635.5,65.3,630.8,60.7z M657.1,34.9
				c-2.3-2.4-5.1-3.5-8.3-3.5c-3.3,0-6.1,1.2-8.3,3.5c-2.3,2.3-3.4,5.1-3.4,8.4c0,3.5,1.1,6.3,3.4,8.7c2.3,2.3,5.1,3.5,8.3,3.5
				c3.3,0,6.1-1.2,8.3-3.5c2.3-2.4,3.5-5.2,3.5-8.7C660.6,40,659.4,37.1,657.1,34.9z"/>
			<path d="M681.5,66.4V20.3h12.6v6c2.9-4.8,7.1-7.2,12.5-7.2c1.8,0,3.6,0.3,5.7,1.1l-1.1,12.6c-1.9-0.7-3.9-1-5.8-1
				c-6.5,0-10.8,4.2-10.8,13.6v21.1H681.5z"/>
			<path d="M788.1,24.1c3.6,3.4,5.4,8.2,5.4,14.3v28h-13.2V40.9c0-6.4-3.5-9.8-8.5-9.8c-5.5,0-9.4,3.9-9.4,10.2v25.1h-13.2V41
				c0-6.1-3.5-9.9-8.7-9.9c-5.4,0-9.3,3.9-9.3,10.3v25h-13.2V20.3h12.9v6.6c2.6-5,8.3-7.9,14.2-7.8c5.6,0,10.8,2.5,13.2,7.8
				c3.5-5.1,9.7-7.8,16.3-7.8C780,19,784.5,20.7,788.1,24.1z"/>
			<path d="M173.3,109.7v1.1h13.1v10.1h-13.1v32.4h-12.1v-32.4h-6.3v-10.1h6.3v-1.4c0-5.7,1.6-9.9,4.9-12.9
				c3.3-2.9,7.6-4.4,12.8-4.4c4.3,0,8.7,1.2,13,3.4l-4,9.2c-2.9-1.3-5.3-1.9-7.1-1.9C176,102.7,173.3,105.2,173.3,109.7z"/>
			<path d="M194.9,148c-4.3-4.3-6.4-9.7-6.4-16c0-6.3,2.1-11.6,6.4-15.9c4.3-4.3,9.8-6.5,16.5-6.5c6.7,0,12.3,2.2,16.6,6.5
				c4.3,4.3,6.4,9.6,6.4,15.9c0,6.3-2.2,11.6-6.4,16c-4.3,4.3-9.9,6.4-16.6,6.4C204.6,154.4,199.1,152.2,194.9,148z M219.1,124.2
				c-2.1-2.2-4.7-3.3-7.7-3.3s-5.6,1.1-7.7,3.3c-2.1,2.1-3.1,4.7-3.1,7.8c0,3.2,1,5.8,3.1,8c2.1,2.1,4.7,3.2,7.7,3.2
				s5.6-1.1,7.7-3.2c2.1-2.2,3.2-4.8,3.2-8C222.2,128.9,221.2,126.3,219.1,124.2z"/>
			<path d="M241.5,153.3v-42.5h11.6v5.5c2.7-4.4,6.5-6.7,11.6-6.7c1.6,0,3.3,0.3,5.3,1l-1,11.6c-1.8-0.6-3.6-0.9-5.4-0.9
				c-6,0-9.9,3.9-9.9,12.6v19.4H241.5z"/>
			<path d="M293.6,153.3V95.9h40v11.9h-27.2v10.6h25.1v11.9h-25.1v10.9h27.1v11.9H293.6z"/>
			<path d="M342.2,153.3v-42.5H354v5.9c2.2-4,7.3-7.1,13.4-7.1c4.6,0,8.5,1.6,11.7,4.6c3.2,3,4.8,7.4,4.8,13.1v26h-12.2v-22.8
				c0-6.2-3.3-9.7-8.3-9.7c-5.5,0-9.2,4-9.2,10v22.5H342.2z"/>
			<path d="M424.1,150.9c-3.6,2.3-8,3.5-13,3.5c-10.2,0-15.2-5.7-15.2-17.1v-16.4h-6.7v-10.1h6.8V95.7H408v15.1h13.7v10.1H408V136
				c0,4.8,1.9,7.2,5.7,7.2c1.9,0,4.3-0.7,7-2.1L424.1,150.9z"/>
			<path d="M469.8,136.1h-31.3c1.5,5.4,5.4,8,11.6,8c4.8,0,9.2-1.4,13.3-4.1l4.8,8.3c-5.2,4-11.4,5.9-18.6,5.9
				c-7.5,0-13.3-2.2-17.3-6.4c-4-4.3-6-9.5-6-15.8c0-6.4,2.1-11.7,6.2-15.9c4.1-4.3,9.5-6.4,16.2-6.4c6.3,0,11.4,1.9,15.4,5.7
				c4,3.8,6.1,9,6.1,15.6C470.2,132.5,470.1,134.2,469.8,136.1z M438.5,127.4h20c-1.2-4.9-4.7-7.9-9.8-7.9
				C443.8,119.5,439.8,122.5,438.5,127.4z"/>
			<path d="M477.3,153.3v-42.5H489v5.5c2.7-4.4,6.5-6.7,11.6-6.7c1.6,0,3.3,0.3,5.3,1l-1,11.6c-1.8-0.6-3.6-0.9-5.4-0.9
				c-6,0-9.9,3.9-9.9,12.6v19.4H477.3z"/>
			<path d="M550.8,116.2c4,4.3,5.9,9.5,5.9,15.7c0,6.3-2,11.6-6,15.9c-4,4.3-8.9,6.5-14.9,6.5c-5,0-9.3-1.8-12.8-5.4v21.9h-12.2v-60
				h12v4.7c3.5-3.9,7.8-5.8,13-5.8C541.9,109.7,546.9,111.8,550.8,116.2z M541.3,124.2c-2-2.2-4.6-3.3-7.8-3.3
				c-3.1,0-5.7,1.1-7.7,3.3c-2,2.1-3,4.7-3,7.8c0,6.3,4.4,11.2,10.7,11.2c6.3,0,10.8-4.9,10.8-11.2
				C544.4,128.9,543.4,126.3,541.3,124.2z"/>
			<path d="M563.9,153.3v-42.5h11.6v5.5c2.7-4.4,6.5-6.7,11.6-6.7c1.6,0,3.3,0.3,5.3,1l-1,11.6c-1.8-0.6-3.6-0.9-5.4-0.9
				c-6,0-9.9,3.9-9.9,12.6v19.4H563.9z"/>
			<path d="M596.6,99.2c0-4.1,3.2-7.2,7.3-7.2c4,0,7.2,3.1,7.2,7.2c0,4.1-3.2,7.2-7.2,7.2C599.7,106.4,596.6,103.3,596.6,99.2z
				 M609.8,153.3h-12.2v-42.5h12.2V153.3z"/>
			<path d="M615.9,146.6l6-7.9c3.6,3.7,7.7,5.6,12.2,5.6c3,0,5.2-1.3,5.2-3.4c0-1.2-0.9-2.2-2.6-3.1c-0.6-0.3-2.3-0.9-5-1.9
				c-2.7-1-4.6-1.7-5.5-2.2c-5-2.4-7.6-6.2-7.6-11.3c0-3.9,1.5-7.1,4.5-9.5c3-2.4,7.1-3.6,12.1-3.6c6.1,0,11.3,1.9,15.4,5.9
				l-5.7,7.9c-3.2-2.6-6.5-4-9.9-4c-2.7,0-4.4,1.2-4.4,3c0,1.6,1.2,2.7,3.8,3.6c4.6,1.5,7.9,2.7,10.1,3.9c4.8,2.6,7.2,6.1,7.2,10.9
				c0,4-1.6,7.3-4.8,9.9c-3.2,2.6-7.4,4-12.6,4C626.5,154.4,620.5,151.8,615.9,146.6z"/>
			<path d="M699.9,136.1h-31.3c1.5,5.4,5.4,8,11.6,8c4.8,0,9.2-1.4,13.3-4.1l4.8,8.3c-5.2,4-11.4,5.9-18.6,5.9
				c-7.5,0-13.3-2.2-17.3-6.4c-4-4.3-6-9.5-6-15.8c0-6.4,2.1-11.7,6.2-15.9c4.1-4.3,9.5-6.4,16.2-6.4c6.3,0,11.4,1.9,15.4,5.7
				c4,3.8,6.1,9,6.1,15.6C700.3,132.5,700.1,134.2,699.9,136.1z M668.6,127.4h20c-1.2-4.9-4.7-7.9-9.8-7.9
				C673.8,119.5,669.9,122.5,668.6,127.4z"/>
			<path d="M760.7,153.3l-3.8-11.6h-19.2l-4,11.6h-13.3l21.5-57.3H753l21,57.3H760.7z M747.4,112.3l-6.2,18.2h12.3L747.4,112.3z"/>
			<path d="M780.6,95.9h12.9v57.3h-12.9V95.9z"/>
		</g>
	</g>
</g>
</svg>
