<?xml version="1.0" encoding="utf-8"?>
<!-- Generator: Adobe Illustrator 28.4.1, SVG Export Plug-In . SVG Version: 6.00 Build 0)  -->
<svg version="1.1" id="Layer_1" xmlns="http://www.w3.org/2000/svg" xmlns:xlink="http://www.w3.org/1999/xlink" x="0px" y="0px"
	 width="170.8px" height="170.8px" viewBox="0 0 170.8 170.8" style="enable-background:new 0 0 170.8 170.8;" xml:space="preserve"
	>
<style type="text/css">
	.Drop_x0020_Shadow{fill:none;}
	.Round_x0020_Corners_x0020_2_x0020_pt{fill:#FFFFFF;stroke:#231F20;stroke-miterlimit:10;}
	.Live_x0020_Reflect_x0020_X{fill:none;}
	.Bevel_x0020_Soft{fill:url(#SVGID_1_);}
	.Dusk{fill:#FFFFFF;}
	.Foliage_GS{fill:#FFDD00;}
	.Pompadour_GS{fill-rule:evenodd;clip-rule:evenodd;fill:#44ADE2;}
	.st0{fill:#FF6900;}
	.st1{fill:#FFB500;}
</style>
<linearGradient id="SVGID_1_" gradientUnits="userSpaceOnUse" x1="-3.2338" y1="-314.9558" x2="-2.5267" y2="-314.2487">
	<stop  offset="0" style="stop-color:#DEDFE3"/>
	<stop  offset="0.1783" style="stop-color:#DADBDF"/>
	<stop  offset="0.3611" style="stop-color:#CECFD3"/>
	<stop  offset="0.546" style="stop-color:#B9BCBF"/>
	<stop  offset="0.7324" style="stop-color:#9CA0A2"/>
	<stop  offset="0.9181" style="stop-color:#787D7E"/>
	<stop  offset="1" style="stop-color:#656B6C"/>
</linearGradient>
<g>
	<g>
		<polygon class="st0" points="65.3,10.5 128.5,44.5 104.1,57.8 40.9,23.8 		"/>
		<path class="st1" d="M123,88.2l5.5,2.9l-24.4,13.3l-8.4-4.5v-5.9l7.5,4c0.3,0.2,0.6,0.2,0.9,0.2c0.3,0,0.6-0.1,0.9-0.2l0,0
			L123,88.2z"/>
		<path class="st1" d="M94.7,110.1C94.7,110.1,94.7,110.1,94.7,110.1L94.7,110.1l-6.5-3.5l5.8-3.2l8,4.3v31.8l-6.5-3.5v-24.3
			C95.7,111.1,95.3,110.5,94.7,110.1z"/>
		<polygon class="st1" points="67.2,81.9 91.8,68.5 91.8,100.3 67.2,113.7 		"/>
		<path class="st0" d="M38.8,27.1l63.4,34.1V93l-6.5-3.5V65.2c0-0.7-0.4-1.3-0.9-1.7c0,0,0,0-0.1,0l0,0L38.8,33.4V27.1z"/>
		<polygon class="st1" points="26.5,31.2 89.7,65.2 65.3,78.5 2.1,44.5 		"/>
		<polygon class="st1" points="0,79.6 0,47.8 63.4,81.9 63.4,113.7 8.5,84.2 		"/>
		<path class="st0" d="M7.6,88.1l56.8,30.6c0.3,0.2,0.6,0.2,0.9,0.2c0.3,0,0.6-0.1,0.9-0.2l0,0l18-9.8l5.5,2.9l-24.4,13.3l-63.2-34
			L7.6,88.1z"/>
		<polygon class="st0" points="0,94.3 63.4,128.5 63.4,160.3 0,126.1 		"/>
		<polygon class="st0" points="91.8,146.8 67.2,160.2 67.2,128.5 91.8,115 		"/>
		<polygon class="st1" points="130.6,126.1 106,139.5 106,107.8 130.6,94.4 		"/>
		<polygon class="st0" points="130.6,79.6 106,93 106,61.2 130.6,47.8 		"/>
	</g>
</g>
</svg>
